<?xml version="1.0" encoding="UTF-8" standalone="no"?>
<!-- Created with Inkscape (http://www.inkscape.org/) -->

<svg
   width="79.278999mm"
   height="65.779694mm"
   viewBox="0 0 79.278999 65.779694"
   version="1.1"
   id="svg5"
   xmlns:xlink="http://www.w3.org/1999/xlink"
   xmlns="http://www.w3.org/2000/svg"
   xmlns:svg="http://www.w3.org/2000/svg">
  <defs
     id="defs2">
    <linearGradient
       id="LinearGradientSwitchOnMain">
      <stop
         style="stop-color:#bfbfbf;stop-opacity:1"
         offset="0"
         id="stop16955" />
      <stop
         style="stop-color:#d9d9d9;stop-opacity:1"
         offset="0.41512719"
         id="stop16957" />
      <stop
         style="stop-color:#e5e5e5;stop-opacity:1"
         offset="0.42999968"
         id="stop16959" />
      <stop
         style="stop-color:#ffffff;stop-opacity:1"
         offset="1"
         id="stop16961" />
    </linearGradient>
    <linearGradient
       id="LinearGradientSwitchOnEdge">
      <stop
         style="stop-color:#e5e5e5;stop-opacity:1"
         offset="0"
         id="stop16949" />
      <stop
         style="stop-color:#ffffff;stop-opacity:1"
         offset="1"
         id="stop16951" />
    </linearGradient>
    <linearGradient
       id="SwitchShadowX">
      <stop
         style="stop-color:#000000;stop-opacity:0.5"
         offset="0"
         id="stop16092" />
      <stop
         style="stop-color:#000000;stop-opacity:0"
         offset="1"
         id="stop16094" />
    </linearGradient>
    <linearGradient
       id="LinearGradientSwitchOffEdge">
      <stop
         style="stop-color:#8c8c8c;stop-opacity:1"
         offset="0"
         id="stop13785" />
      <stop
         style="stop-color:#cccccc;stop-opacity:1"
         offset="1"
         id="stop13791" />
    </linearGradient>
    <linearGradient
       id="LinearGradientSwitchOffMain">
      <stop
         style="stop-color:#cccccc;stop-opacity:1"
         offset="0"
         id="stop2175" />
      <stop
         style="stop-color:#d9d9d9;stop-opacity:1"
         offset="0.5"
         id="stop11761" />
      <stop
         style="stop-color:#e5e5e5;stop-opacity:1"
         offset="0.51682985"
         id="stop12467" />
      <stop
         style="stop-color:#ffffff;stop-opacity:1"
         offset="1"
         id="stop2177" />
    </linearGradient>
    <linearGradient
       id="LinearGradientSwitchInnerBorder">
      <stop
         style="stop-color:#999999;stop-opacity:1"
         offset="0"
         id="stop1516" />
      <stop
         style="stop-color:#cccccc;stop-opacity:1"
         offset="1"
         id="stop1518" />
    </linearGradient>
    <linearGradient
       id="LinearGradientSwitchInner">
      <stop
         style="stop-color:#000000;stop-opacity:1;"
         offset="0"
         id="stop1489" />
      <stop
         style="stop-color:#404040;stop-opacity:1"
         offset="1"
         id="stop1491" />
    </linearGradient>
    <linearGradient
       id="LinearGradientSwitchBoxBorder">
      <stop
         style="stop-color:#ffffff;stop-opacity:1"
         offset="0"
         id="stop1691" />
      <stop
         style="stop-color:#cccccc;stop-opacity:1"
         offset="1"
         id="stop1693" />
    </linearGradient>
    <linearGradient
       id="LinearGradientSwitchBox">
      <stop
         style="stop-color:#fafafa;stop-opacity:1"
         offset="0"
         id="stop1683" />
      <stop
         style="stop-color:#d9d9d9;stop-opacity:1"
         offset="1"
         id="stop1685" />
    </linearGradient>
    <linearGradient
       gradientTransform="rotate(90,-90.0007,50.0022)"
       y2="-383.9975"
       x2="-23.516129"
       y1="-383.9971"
       x1="-84.002403"
       gradientUnits="userSpaceOnUse"
       id="LinearGradientBoxBorder">
      <stop
         id="stop21193"
         style="stop-color:#e5e5e5;stop-opacity:1"
         offset="0" />
      <stop
         id="stop21195"
         style="stop-color:#bfbfbf;stop-opacity:1"
         offset="1" />
    </linearGradient>
    <linearGradient
       id="RadialGradientBox">
      <stop
         style="stop-color:#dfdfdf;stop-opacity:1"
         offset="0"
         id="stop6298" />
      <stop
         style="stop-color:#f4f4f4;stop-opacity:1"
         offset="1"
         id="stop6300" />
    </linearGradient>
    <linearGradient
       id="LinearGradientBoxSpecular2">
      <stop
         style="stop-color:#ffffff;stop-opacity:1"
         offset="0"
         id="stop4639" />
      <stop
         style="stop-color:#ffffff;stop-opacity:0"
         offset="1"
         id="stop4641" />
    </linearGradient>
    <linearGradient
       id="LinearGradientBoxSpecular">
      <stop
         style="stop-color:#ffffff;stop-opacity:0"
         offset="0"
         id="stop3046" />
      <stop
         style="stop-color:#ffffff;stop-opacity:1"
         offset="0.5"
         id="stop3116" />
      <stop
         style="stop-color:#ffffff;stop-opacity:0;"
         offset="1"
         id="stop3048" />
    </linearGradient>
    <linearGradient
       id="RadialGradientHex">
      <stop
         style="stop-color:#000000;stop-opacity:1;"
         offset="0"
         id="stop3677" />
      <stop
         style="stop-color:#000000;stop-opacity:0;"
         offset="1"
         id="stop3679" />
    </linearGradient>
    <linearGradient
       xlink:href="#LinearGradientBoxSpecular"
       id="linearGradient2835"
       x1="131.91005"
       y1="114.63321"
       x2="131.51784"
       y2="284.91772"
       gradientUnits="userSpaceOnUse" />
    <linearGradient
       xlink:href="#LinearGradientBoxSpecular2"
       id="linearGradient4645"
       x1="50.176556"
       y1="81.868889"
       x2="50.187046"
       y2="75.725929"
       gradientUnits="userSpaceOnUse" />
    <filter
       style="color-interpolation-filters:sRGB"
       id="filter4799"
       x="-0.027653968"
       y="-0.18163683"
       width="1.0553079"
       height="1.3632737">
      <feGaussianBlur
         stdDeviation="0.83572366"
         id="feGaussianBlur4801" />
    </filter>
    <radialGradient
       xlink:href="#RadialGradientBox"
       id="radialGradient6304"
       cx="49.967976"
       cy="51.476395"
       fx="49.967976"
       fy="51.476395"
       r="36.794067"
       gradientTransform="matrix(1.7312234,-0.16899547,0.07155189,0.73299184,-41.203679,24.910165)"
       gradientUnits="userSpaceOnUse" />
    <radialGradient
       xlink:href="#RadialGradientHex"
       id="radialGradient19655"
       gradientUnits="userSpaceOnUse"
       gradientTransform="matrix(0.04223023,-0.02356009,0.02626614,0.04708075,27.09993,72.454839)"
       cx="310.44345"
       cy="-285.63126"
       fx="310.44345"
       fy="-285.63126"
       r="483.97446" />
    <radialGradient
       xlink:href="#RadialGradientGreenLedOn"
       id="radialGradient1484"
       gradientUnits="userSpaceOnUse"
       gradientTransform="matrix(4.552356,0,0,4.5523492,-7.4437071,-1261.42)"
       cx="8.8198948"
       cy="288.44736"
       fx="8.8198948"
       fy="288.44736"
       r="6.4144688" />
    <linearGradient
       id="RadialGradientGreenLedOn">
      <stop
         id="stop1486"
         offset="0"
         style="stop-color:#5cff69;stop-opacity:1" />
      <stop
         style="stop-color:#00e113;stop-opacity:1"
         offset="0.7570765"
         id="stop1488" />
      <stop
         id="stop1490"
         offset="1"
         style="stop-color:#007109;stop-opacity:1" />
    </linearGradient>
    <linearGradient
       xlink:href="#LienarGradientOrbHighlight"
       id="linearGradient1476"
       x1="14.566191"
       y1="252.09871"
       x2="53.988441"
       y2="252.09871"
       gradientUnits="userSpaceOnUse"
       gradientTransform="matrix(0.67709918,0,0,1.827381,14.98238,-493.38795)" />
    <linearGradient
       gradientTransform="rotate(90,-90.0007,50.0022)"
       y2="-383.9975"
       x2="-23.516129"
       y1="-383.9971"
       x1="-84.002403"
       gradientUnits="userSpaceOnUse"
       id="LienarGradientOrbHighlight">
      <stop
         id="stop1478"
         style="stop-color:#ffffff;stop-opacity:1"
         offset="0" />
      <stop
         id="stop1480"
         style="stop-color:white;stop-opacity:0"
         offset="1" />
    </linearGradient>
    <linearGradient
       xlink:href="#LinearGradientBoxBorder"
       id="linearGradient21172"
       x1="55.550968"
       y1="38.297565"
       x2="61.956512"
       y2="82.887947"
       gradientUnits="userSpaceOnUse" />
    <filter
       style="color-interpolation-filters:sRGB"
       id="filter21488"
       x="-0.038667062"
       y="-0.047591778"
       width="1.0773341"
       height="1.0951836">
      <feGaussianBlur
         stdDeviation="1.1855987"
         id="feGaussianBlur21490" />
    </filter>
    <filter
       style="color-interpolation-filters:sRGB"
       id="filter22122"
       x="-0.018941928"
       y="-0.019432102"
       width="1.0378839"
       height="1.0388642">
      <feGaussianBlur
         stdDeviation="0.31663494"
         id="feGaussianBlur22124" />
    </filter>
    <radialGradient
       xlink:href="#RadialGradientGreenLedOn"
       id="radialGradient22356"
       gradientUnits="userSpaceOnUse"
       gradientTransform="matrix(4.552356,0,0,4.5523492,-7.4437071,-1261.42)"
       cx="8.8198948"
       cy="288.44736"
       fx="8.8198948"
       fy="288.44736"
       r="6.4144688" />
    <linearGradient
       xlink:href="#LienarGradientOrbHighlight"
       id="linearGradient22358"
       gradientUnits="userSpaceOnUse"
       gradientTransform="matrix(0.67709918,0,0,1.827381,14.98238,-493.38795)"
       x1="14.566191"
       y1="252.09871"
       x2="53.988441"
       y2="252.09871" />
    <radialGradient
       xlink:href="#RadialGradientHex"
       id="radialGradient22360"
       gradientUnits="userSpaceOnUse"
       gradientTransform="matrix(0.04223023,-0.02356009,0.02626614,0.04708075,27.09993,72.454839)"
       cx="310.44345"
       cy="-285.63126"
       fx="310.44345"
       fy="-285.63126"
       r="483.97446" />
    <radialGradient
       xlink:href="#RadialGradientRedLedOn"
       id="radialGradient23491"
       gradientUnits="userSpaceOnUse"
       gradientTransform="matrix(4.552356,0,0,4.5523492,-7.4437071,-1261.42)"
       cx="8.8198948"
       cy="288.44736"
       fx="8.8198948"
       fy="288.44736"
       r="6.4144688" />
    <linearGradient
       xlink:href="#LienarGradientOrbHighlight"
       id="linearGradient23493"
       gradientUnits="userSpaceOnUse"
       gradientTransform="matrix(0.67709918,0,0,1.827381,14.98238,-493.38795)"
       x1="14.566191"
       y1="252.09871"
       x2="53.988441"
       y2="252.09871" />
    <radialGradient
       xlink:href="#RadialGradientHex"
       id="radialGradient23495"
       gradientUnits="userSpaceOnUse"
       gradientTransform="matrix(0.04223023,-0.02356009,0.02626614,0.04708075,27.09993,72.454839)"
       cx="310.44345"
       cy="-285.63126"
       fx="310.44345"
       fy="-285.63126"
       r="483.97446" />
    <linearGradient
       id="RadialGradientRedLedOn">
      <stop
         style="stop-color:#ff5c5c;stop-opacity:1"
         offset="0"
         id="stop1486-5" />
      <stop
         id="stop1488-6"
         offset="0.7570765"
         style="stop-color:#e10200;stop-opacity:1" />
      <stop
         style="stop-color:#710000;stop-opacity:1"
         offset="1"
         id="stop1490-2" />
    </linearGradient>
    <radialGradient
       xlink:href="#RadialGradientRedLedOn"
       id="radialGradient25679"
       gradientUnits="userSpaceOnUse"
       gradientTransform="matrix(4.552356,0,0,4.5523492,-7.4437071,-1261.42)"
       cx="8.8198948"
       cy="288.44736"
       fx="8.8198948"
       fy="288.44736"
       r="6.4144688" />
    <linearGradient
       xlink:href="#LienarGradientOrbHighlight"
       id="linearGradient25681"
       gradientUnits="userSpaceOnUse"
       gradientTransform="matrix(0.67709918,0,0,1.827381,14.98238,-493.38795)"
       x1="14.566191"
       y1="252.09871"
       x2="53.988441"
       y2="252.09871" />
    <radialGradient
       xlink:href="#RadialGradientHex"
       id="radialGradient25683"
       gradientUnits="userSpaceOnUse"
       gradientTransform="matrix(0.04223023,-0.02356009,0.02626614,0.04708075,27.09993,72.454839)"
       cx="310.44345"
       cy="-285.63126"
       fx="310.44345"
       fy="-285.63126"
       r="483.97446" />
    <filter
       style="color-interpolation-filters:sRGB"
       id="filter26219"
       x="-0.047999999"
       y="-0.047999999"
       width="1.096"
       height="1.096">
      <feGaussianBlur
         stdDeviation="1.1680378"
         id="feGaussianBlur26221" />
    </filter>
    <filter
       style="color-interpolation-filters:sRGB"
       id="filter26627"
       x="-0.047999999"
       y="-0.047999999"
       width="1.096"
       height="1.096">
      <feGaussianBlur
         stdDeviation="1.1680378"
         id="feGaussianBlur26629" />
    </filter>
    <filter
       style="color-interpolation-filters:sRGB"
       id="filter27078"
       x="-0.047999999"
       y="-0.047999999"
       width="1.096"
       height="1.096">
      <feGaussianBlur
         stdDeviation="1.1680378"
         id="feGaussianBlur27080" />
    </filter>
    <filter
       style="color-interpolation-filters:sRGB"
       id="filter28129"
       x="-0.047999999"
       y="-0.047999999"
       width="1.096"
       height="1.096">
      <feGaussianBlur
         stdDeviation="1.1680378"
         id="feGaussianBlur28131" />
    </filter>
    <linearGradient
       xlink:href="#LinearGradientSwitchBox"
       id="linearGradient1689"
       x1="50.434643"
       y1="26.790728"
       x2="50.655758"
       y2="76.548943"
       gradientUnits="userSpaceOnUse"
       gradientTransform="translate(0,0.52916829)" />
    <linearGradient
       xlink:href="#LinearGradientSwitchBoxBorder"
       id="linearGradient1697"
       x1="46.69791"
       y1="30.404102"
       x2="65.966881"
       y2="74.085449"
       gradientUnits="userSpaceOnUse"
       gradientTransform="translate(0,0.52916829)" />
    <filter
       style="color-interpolation-filters:sRGB"
       id="filter2111"
       x="-0.0405"
       y="-0.02025"
       width="1.081"
       height="1.0405">
      <feGaussianBlur
         stdDeviation="0.421875"
         id="feGaussianBlur2113" />
    </filter>
    <linearGradient
       xlink:href="#LinearGradientSwitchBox"
       id="linearGradient2519"
       gradientUnits="userSpaceOnUse"
       gradientTransform="translate(29.104179,0.52916829)"
       x1="50.434643"
       y1="26.790728"
       x2="50.655758"
       y2="76.548943" />
    <linearGradient
       xlink:href="#LinearGradientSwitchBoxBorder"
       id="linearGradient2521"
       gradientUnits="userSpaceOnUse"
       gradientTransform="translate(29.104179,0.52916829)"
       x1="46.69791"
       y1="30.404102"
       x2="65.966881"
       y2="74.085449" />
    <linearGradient
       xlink:href="#LinearGradientSwitchInner"
       id="linearGradient1495"
       x1="34.104649"
       y1="40.505234"
       x2="34.012547"
       y2="65.104218"
       gradientUnits="userSpaceOnUse" />
    <linearGradient
       xlink:href="#LinearGradientSwitchInner"
       id="linearGradient1522"
       x1="29.234196"
       y1="39.911938"
       x2="39.30888"
       y2="65.397926"
       gradientUnits="userSpaceOnUse" />
    <linearGradient
       xlink:href="#LinearGradientSwitchOffMain"
       id="linearGradient2181"
       x1="33.992939"
       y1="41.960346"
       x2="34.104553"
       y2="63.705963"
       gradientUnits="userSpaceOnUse"
       gradientTransform="translate(-0.1130867,0.18559265)" />
    <linearGradient
       xlink:href="#LinearGradientSwitchOffEdge"
       id="linearGradient13689"
       gradientUnits="userSpaceOnUse"
       x1="38.803955"
       y1="60.735035"
       x2="29.143486"
       y2="60.742825"
       gradientTransform="translate(-0.1130867,0.18559265)" />
    <radialGradient
       xlink:href="#SwitchShadowX"
       id="radialGradient16447"
       cx="36.101601"
       cy="61.580254"
       fx="36.101601"
       fy="61.580254"
       r="7.2458353"
       gradientTransform="matrix(1,0,0,1.5812984,0,-37.659668)"
       gradientUnits="userSpaceOnUse" />
    <linearGradient
       xlink:href="#LinearGradientSwitchInner"
       id="linearGradient16763"
       gradientUnits="userSpaceOnUse"
       x1="34.104649"
       y1="40.505234"
       x2="34.012547"
       y2="65.104218" />
    <linearGradient
       xlink:href="#LinearGradientSwitchInnerBorder"
       id="linearGradient16765"
       gradientUnits="userSpaceOnUse"
       x1="29.234196"
       y1="39.911938"
       x2="39.30888"
       y2="65.397926" />
    <linearGradient
       xlink:href="#LinearGradientSwitchOnEdge"
       id="linearGradient16767"
       gradientUnits="userSpaceOnUse"
       gradientTransform="translate(-0.1130867,0.18559265)"
       x1="38.803955"
       y1="60.735035"
       x2="29.143486"
       y2="60.742825" />
    <radialGradient
       xlink:href="#SwitchShadowX"
       id="radialGradient16769"
       gradientUnits="userSpaceOnUse"
       gradientTransform="matrix(1.311707,8.4514818e-4,-0.00137921,2.1405959,-11.440488,-81.156355)"
       cx="36.916763"
       cy="59.90873"
       fx="36.916763"
       fy="59.90873"
       r="7.2458353" />
    <linearGradient
       xlink:href="#LinearGradientSwitchOnMain"
       id="linearGradient16771"
       gradientUnits="userSpaceOnUse"
       gradientTransform="translate(-0.1130867,2.3022594)"
       x1="33.992939"
       y1="41.960346"
       x2="34.104553"
       y2="63.705963" />
  </defs>
  <g
     id="layer1"
     transform="translate(-12.093239,-21.168564)">
    <g
       id="box"
       transform="translate(0.18457972)">
      <rect
         style="opacity:0.3;fill:#000000;fill-opacity:1;stroke:none;stroke-width:1;stroke-linecap:round;stroke-linejoin:bevel;stroke-miterlimit:4;stroke-dasharray:none;paint-order:markers stroke fill;filter:url(#filter21488)"
         id="boxShadow"
         width="73.588135"
         height="59.788414"
         x="14.754096"
         y="24.3144"
         ry="8" />
      <rect
         style="fill:url(#radialGradient6304);fill-opacity:1;stroke:url(#linearGradient21172);stroke-width:1;stroke-linecap:round;stroke-linejoin:bevel;stroke-miterlimit:4;stroke-dasharray:none;paint-order:markers stroke fill"
         id="Box"
         width="73.588135"
         height="61.375916"
         x="13.695764"
         y="21.668564"
         ry="8" />
      <path
         id="BoxBorderHighlight"
         style="fill:none;fill-opacity:1;stroke:url(#linearGradient2835);stroke-width:3.02362;stroke-linecap:butt;stroke-linejoin:miter;stroke-miterlimit:4;stroke-dasharray:none;stroke-opacity:1"
         d="m 56.996094,112.47461 v 171.92383 z m 268.000006,0 v 171.92383 z"
         transform="scale(0.26458333)" />
      <path
         id="BoxHighlight"
         style="fill:url(#linearGradient4645);fill-opacity:1;stroke:none;stroke-width:0.124;stroke-linecap:round;stroke-linejoin:bevel;paint-order:markers stroke fill;filter:url(#filter4799)"
         d="m 86.754731,71.472746 v 3.042566 c 0,4.432 -3.568,8 -8,8 h -56.5298 c -4.432,0 -7.240582,-3.633547 -8,-8 v -3.042566 z" />
    </g>
    <g
       id="switchbox1"
       transform="translate(10.054167)">
      <rect
         style="opacity:0.5;fill:#000000;fill-opacity:1;stroke:none;stroke-width:1;stroke-linecap:round;stroke-linejoin:bevel;paint-order:markers stroke fill;filter:url(#filter2111)"
         id="SwitchBoxShadow"
         width="25"
         height="50"
         x="44.208469"
         y="27.997284"
         rx="3" />
      <rect
         style="opacity:1;fill:url(#linearGradient1689);fill-opacity:1;stroke:url(#linearGradient1697);stroke-width:1;stroke-linecap:round;stroke-linejoin:bevel;paint-order:markers stroke fill"
         id="SwitchBox"
         width="25"
         height="50"
         x="43.679302"
         y="27.468119"
         rx="3" />
      <g
         id="led-g-on"
         transform="matrix(0.13412322,0,0,0.13412322,51.792455,26.484871)">
        <circle
           r="29.200945"
           style="opacity:0.5;fill:#111111;fill-opacity:1;stroke:none;stroke-width:1.20448;stroke-miterlimit:4;stroke-dasharray:none;stroke-opacity:1;filter:url(#filter26627)"
           id="IndicatorGreenOnShadow"
           cx="34.194111"
           cy="52.684044" />
        <circle
           r="29.200945"
           style="fill:url(#radialGradient22356);fill-opacity:1;stroke:#005c08;stroke-width:1.20448;stroke-miterlimit:4;stroke-dasharray:none;stroke-opacity:1"
           id="IndicatorGreenOnOrb"
           cx="32.707592"
           cy="51.693031" />
        <ellipse
           style="fill:url(#linearGradient22358);fill-opacity:1;stroke:none;stroke-width:0.294309;stroke-miterlimit:4;stroke-dasharray:none;stroke-opacity:1"
           id="IndicatorGreenOnSpecular"
           cx="38.191536"
           cy="-32.707584"
           rx="13.346388"
           ry="20.512936"
           transform="rotate(90)" />
        <path
           id="IndicatorGreenOnHex"
           style="fill:none;stroke:url(#radialGradient22360);stroke-width:0.974299;stroke-linecap:round;stroke-linejoin:bevel;stroke-miterlimit:4;stroke-dasharray:none;paint-order:markers stroke fill;filter:url(#filter22122)"
           d="m 39.29124,78.300601 v -7.602168 l 6.583696,-3.801074 6.583598,3.801074 v 7.602158 l -6.583598,3.801095 z M 45.874936,66.897359 V 59.29519 l 6.583598,-3.801075 6.583697,3.801075 v 7.602169 l -6.583697,3.801083 z m 6.583598,-11.403244 v -7.602169 l 6.583697,-3.801083 6.583695,3.801083 v 7.60216 L 59.042231,59.29519 Z M 26.123945,78.300601 v -7.602168 l 6.583599,-3.801074 6.583696,3.801074 v 7.602158 l -6.583696,3.801095 z M 32.707544,66.897359 V 59.29519 l 6.583696,-3.801075 6.583696,3.801075 v 7.602169 L 39.29124,70.698433 Z M 39.29124,55.494115 v -7.602169 l 6.583696,-3.801083 6.583598,3.801083 v 7.60216 l -6.583598,3.801084 z m 6.583696,-11.403243 v -7.602169 l 6.583598,-3.801074 6.583697,3.801074 v 7.60216 l -6.583697,3.801083 z M 12.956553,78.300601 v -7.602168 l 6.583696,-3.801074 6.583696,3.801074 v 7.602158 l -6.583696,3.801095 z M 19.540249,66.897359 V 59.29519 l 6.583696,-3.801075 6.583599,3.801075 v 7.602169 l -6.583599,3.801074 z m 6.583696,-11.403244 v -7.602169 l 6.583599,-3.801083 6.583696,3.801083 v 7.60216 l -6.583696,3.801084 z m 6.583599,-11.403252 v -7.60216 l 6.583696,-3.801074 6.583696,3.801074 v 7.60216 L 39.29124,47.891946 Z M 39.29124,32.687629 V 25.08546 l 6.583696,-3.801084 6.583598,3.801084 v 7.602159 l -6.583598,3.801084 z M 6.3729538,66.897359 V 59.29519 l 6.5835992,-3.801075 6.583696,3.801075 v 7.602169 l -6.583696,3.801083 z M 12.956553,55.494115 v -7.602169 l 6.583696,-3.801083 6.583696,3.801083 v 7.60216 l -6.583696,3.801084 z m 6.583696,-11.403252 v -7.60216 l 6.583696,-3.801074 6.583599,3.801074 v 7.60216 l -6.583599,3.801083 z M 26.123945,32.687629 V 25.08546 l 6.583599,-3.801084 6.583696,3.801084 v 7.602159 l -6.583696,3.801084 z M -0.21074159,55.494115 v -7.602169 l 6.58369539,-3.801083 6.5835992,3.801083 v 7.60216 L 6.3729538,59.29519 Z M 6.3729538,44.090863 v -7.60216 l 6.5835992,-3.801074 6.583696,3.801074 v 7.60216 l -6.583696,3.801083 z M 12.956553,32.687629 V 25.08546 l 6.583696,-3.801084 6.583696,3.801084 v 7.602159 l -6.583696,3.801084 z m 0,0 V 25.08546 l 6.583696,-3.801084 6.583696,3.801084 v 7.602159 l -6.583696,3.801084 z"
           transform="matrix(1.0657329,0,0,1.0657329,-2.1499656,-3.3979328)" />
      </g>
      <g
         id="led-r-off"
         transform="matrix(0.13412322,0,0,0.13412322,51.792455,64.584895)">
        <circle
           r="29.200945"
           style="opacity:0.5;fill:#000000;fill-opacity:1;stroke:none;stroke-width:1.20448;stroke-miterlimit:4;stroke-dasharray:none;stroke-opacity:1;filter:url(#filter28129)"
           id="IndicatorRedOffDarken"
           cx="33.946358"
           cy="52.931797" />
        <circle
           r="29.200945"
           style="fill:url(#radialGradient25679);fill-opacity:1;stroke:#5c0000;stroke-width:1.20448;stroke-miterlimit:4;stroke-dasharray:none;stroke-opacity:1"
           id="IndicatorRedOffOrb"
           cx="32.707592"
           cy="51.693031" />
        <ellipse
           style="fill:url(#linearGradient25681);fill-opacity:1;stroke:none;stroke-width:0.294309;stroke-miterlimit:4;stroke-dasharray:none;stroke-opacity:1"
           id="IndicatorRedOffHighlight"
           cx="38.191536"
           cy="-32.707584"
           rx="13.346388"
           ry="20.512936"
           transform="rotate(90)" />
        <path
           id="IndicatorRedOffHex"
           style="fill:none;stroke:url(#radialGradient25683);stroke-width:0.974299;stroke-linecap:round;stroke-linejoin:bevel;stroke-miterlimit:4;stroke-dasharray:none;paint-order:markers stroke fill;filter:url(#filter22122)"
           d="m 39.29124,78.300601 v -7.602168 l 6.583696,-3.801074 6.583598,3.801074 v 7.602158 l -6.583598,3.801095 z M 45.874936,66.897359 V 59.29519 l 6.583598,-3.801075 6.583697,3.801075 v 7.602169 l -6.583697,3.801083 z m 6.583598,-11.403244 v -7.602169 l 6.583697,-3.801083 6.583695,3.801083 v 7.60216 L 59.042231,59.29519 Z M 26.123945,78.300601 v -7.602168 l 6.583599,-3.801074 6.583696,3.801074 v 7.602158 l -6.583696,3.801095 z M 32.707544,66.897359 V 59.29519 l 6.583696,-3.801075 6.583696,3.801075 v 7.602169 L 39.29124,70.698433 Z M 39.29124,55.494115 v -7.602169 l 6.583696,-3.801083 6.583598,3.801083 v 7.60216 l -6.583598,3.801084 z m 6.583696,-11.403243 v -7.602169 l 6.583598,-3.801074 6.583697,3.801074 v 7.60216 l -6.583697,3.801083 z M 12.956553,78.300601 v -7.602168 l 6.583696,-3.801074 6.583696,3.801074 v 7.602158 l -6.583696,3.801095 z M 19.540249,66.897359 V 59.29519 l 6.583696,-3.801075 6.583599,3.801075 v 7.602169 l -6.583599,3.801074 z m 6.583696,-11.403244 v -7.602169 l 6.583599,-3.801083 6.583696,3.801083 v 7.60216 l -6.583696,3.801084 z m 6.583599,-11.403252 v -7.60216 l 6.583696,-3.801074 6.583696,3.801074 v 7.60216 L 39.29124,47.891946 Z M 39.29124,32.687629 V 25.08546 l 6.583696,-3.801084 6.583598,3.801084 v 7.602159 l -6.583598,3.801084 z M 6.3729538,66.897359 V 59.29519 l 6.5835992,-3.801075 6.583696,3.801075 v 7.602169 l -6.583696,3.801083 z M 12.956553,55.494115 v -7.602169 l 6.583696,-3.801083 6.583696,3.801083 v 7.60216 l -6.583696,3.801084 z m 6.583696,-11.403252 v -7.60216 l 6.583696,-3.801074 6.583599,3.801074 v 7.60216 l -6.583599,3.801083 z M 26.123945,32.687629 V 25.08546 l 6.583599,-3.801084 6.583696,3.801084 v 7.602159 l -6.583696,3.801084 z M -0.21074159,55.494115 v -7.602169 l 6.58369539,-3.801083 6.5835992,3.801083 v 7.60216 L 6.3729538,59.29519 Z M 6.3729538,44.090863 v -7.60216 l 6.5835992,-3.801074 6.583696,3.801074 v 7.60216 l -6.583696,3.801083 z M 12.956553,32.687629 V 25.08546 l 6.583696,-3.801084 6.583696,3.801084 v 7.602159 l -6.583696,3.801084 z m 0,0 V 25.08546 l 6.583696,-3.801084 6.583696,3.801084 v 7.602159 l -6.583696,3.801084 z"
           transform="matrix(1.0657329,0,0,1.0657329,-2.1499656,-3.3979328)" />
        <ellipse
           cy="51.693031"
           cx="32.707592"
           id="IndicatorRedOffShadow"
           style="opacity:0.5;fill:#000000;fill-opacity:1;stroke:none;stroke-width:1.20448;stroke-miterlimit:4;stroke-dasharray:none;stroke-opacity:1"
           rx="29.201"
           ry="29.200945" />
      </g>
    </g>
    <g
       id="switchbox2"
       transform="translate(-51.329193)">
      <rect
         style="opacity:0.5;fill:#000000;fill-opacity:1;stroke:none;stroke-width:1;stroke-linecap:round;stroke-linejoin:bevel;paint-order:markers stroke fill;filter:url(#filter2111)"
         id="SwitchBoxShaddow2"
         width="25"
         height="50"
         x="73.312645"
         y="27.997284"
         rx="3" />
      <rect
         style="fill:url(#linearGradient2519);fill-opacity:1;stroke:url(#linearGradient2521);stroke-width:1;stroke-linecap:round;stroke-linejoin:bevel;paint-order:markers stroke fill"
         id="SwitchBox2"
         width="25"
         height="50"
         x="72.783478"
         y="27.468119"
         rx="3" />
      <g
         id="led-g-off"
         transform="matrix(0.13412322,0,0,0.13412322,80.89663,26.484871)">
        <circle
           r="29.200945"
           style="opacity:0.5;mix-blend-mode:normal;fill:#000000;fill-opacity:1;stroke:none;stroke-width:1.20448;stroke-miterlimit:4;stroke-dasharray:none;stroke-opacity:1;filter:url(#filter26219)"
           id="IndicatorGreenOffShadow"
           cx="33.203098"
           cy="53.17955" />
        <circle
           r="29.200945"
           style="fill:url(#radialGradient1484);fill-opacity:1;stroke:#005c08;stroke-width:1.20448;stroke-miterlimit:4;stroke-dasharray:none;stroke-opacity:1"
           id="IndicatorGreenOffOrb"
           cx="32.707592"
           cy="51.693031" />
        <ellipse
           style="fill:url(#linearGradient1476);fill-opacity:1;stroke:none;stroke-width:0.294309;stroke-miterlimit:4;stroke-dasharray:none;stroke-opacity:1"
           id="IndicatorGreenOffHighlight"
           cx="38.191536"
           cy="-32.707584"
           rx="13.346388"
           ry="20.512936"
           transform="rotate(90)" />
        <ellipse
           cy="51.693031"
           cx="32.707592"
           id="IndicatorGreenOffDarken"
           style="opacity:0.5;fill:#000000;fill-opacity:1;stroke:none;stroke-width:1.20448;stroke-miterlimit:4;stroke-dasharray:none;stroke-opacity:1"
           rx="29.201"
           ry="29.200945" />
        <path
           id="hex"
           style="fill:none;stroke:url(#radialGradient19655);stroke-width:0.974299;stroke-linecap:round;stroke-linejoin:bevel;stroke-miterlimit:4;stroke-dasharray:none;paint-order:markers stroke fill;filter:url(#filter22122)"
           d="m 39.29124,78.300601 v -7.602168 l 6.583696,-3.801074 6.583598,3.801074 v 7.602158 l -6.583598,3.801095 z M 45.874936,66.897359 V 59.29519 l 6.583598,-3.801075 6.583697,3.801075 v 7.602169 l -6.583697,3.801083 z m 6.583598,-11.403244 v -7.602169 l 6.583697,-3.801083 6.583695,3.801083 v 7.60216 L 59.042231,59.29519 Z M 26.123945,78.300601 v -7.602168 l 6.583599,-3.801074 6.583696,3.801074 v 7.602158 l -6.583696,3.801095 z M 32.707544,66.897359 V 59.29519 l 6.583696,-3.801075 6.583696,3.801075 v 7.602169 L 39.29124,70.698433 Z M 39.29124,55.494115 v -7.602169 l 6.583696,-3.801083 6.583598,3.801083 v 7.60216 l -6.583598,3.801084 z m 6.583696,-11.403243 v -7.602169 l 6.583598,-3.801074 6.583697,3.801074 v 7.60216 l -6.583697,3.801083 z M 12.956553,78.300601 v -7.602168 l 6.583696,-3.801074 6.583696,3.801074 v 7.602158 l -6.583696,3.801095 z M 19.540249,66.897359 V 59.29519 l 6.583696,-3.801075 6.583599,3.801075 v 7.602169 l -6.583599,3.801074 z m 6.583696,-11.403244 v -7.602169 l 6.583599,-3.801083 6.583696,3.801083 v 7.60216 l -6.583696,3.801084 z m 6.583599,-11.403252 v -7.60216 l 6.583696,-3.801074 6.583696,3.801074 v 7.60216 L 39.29124,47.891946 Z M 39.29124,32.687629 V 25.08546 l 6.583696,-3.801084 6.583598,3.801084 v 7.602159 l -6.583598,3.801084 z M 6.3729538,66.897359 V 59.29519 l 6.5835992,-3.801075 6.583696,3.801075 v 7.602169 l -6.583696,3.801083 z M 12.956553,55.494115 v -7.602169 l 6.583696,-3.801083 6.583696,3.801083 v 7.60216 l -6.583696,3.801084 z m 6.583696,-11.403252 v -7.60216 l 6.583696,-3.801074 6.583599,3.801074 v 7.60216 l -6.583599,3.801083 z M 26.123945,32.687629 V 25.08546 l 6.583599,-3.801084 6.583696,3.801084 v 7.602159 l -6.583696,3.801084 z M -0.21074159,55.494115 v -7.602169 l 6.58369539,-3.801083 6.5835992,3.801083 v 7.60216 L 6.3729538,59.29519 Z M 6.3729538,44.090863 v -7.60216 l 6.5835992,-3.801074 6.583696,3.801074 v 7.60216 l -6.583696,3.801083 z M 12.956553,32.687629 V 25.08546 l 6.583696,-3.801084 6.583696,3.801084 v 7.602159 l -6.583696,3.801084 z m 0,0 V 25.08546 l 6.583696,-3.801084 6.583696,3.801084 v 7.602159 l -6.583696,3.801084 z"
           transform="matrix(1.0657329,0,0,1.0657329,-2.1499656,-3.3979328)" />
      </g>
      <g
         id="led-r-on"
         transform="matrix(0.13412322,0,0,0.13412322,80.89663,64.584895)">
        <circle
           r="29.200945"
           style="opacity:0.5;fill:#000000;fill-opacity:1;stroke:none;stroke-width:1.20448;stroke-miterlimit:4;stroke-dasharray:none;stroke-opacity:1;filter:url(#filter27078)"
           id="IndicatorRedOnShadow"
           cx="34.194111"
           cy="52.684044" />
        <circle
           r="29.200945"
           style="fill:url(#radialGradient23491);fill-opacity:1;stroke:#5c0000;stroke-width:1.20448;stroke-miterlimit:4;stroke-dasharray:none;stroke-opacity:1"
           id="IndicatorRedOnOrb"
           cx="32.707592"
           cy="51.693031" />
        <ellipse
           style="fill:url(#linearGradient23493);fill-opacity:1;stroke:none;stroke-width:0.294309;stroke-miterlimit:4;stroke-dasharray:none;stroke-opacity:1"
           id="IndicatorRedOnHighlight"
           cx="38.191536"
           cy="-32.707584"
           rx="13.346388"
           ry="20.512936"
           transform="rotate(90)" />
        <path
           id="IndicatorRedOnHex"
           style="fill:none;stroke:url(#radialGradient23495);stroke-width:0.974299;stroke-linecap:round;stroke-linejoin:bevel;stroke-miterlimit:4;stroke-dasharray:none;paint-order:markers stroke fill;filter:url(#filter22122)"
           d="m 39.29124,78.300601 v -7.602168 l 6.583696,-3.801074 6.583598,3.801074 v 7.602158 l -6.583598,3.801095 z M 45.874936,66.897359 V 59.29519 l 6.583598,-3.801075 6.583697,3.801075 v 7.602169 l -6.583697,3.801083 z m 6.583598,-11.403244 v -7.602169 l 6.583697,-3.801083 6.583695,3.801083 v 7.60216 L 59.042231,59.29519 Z M 26.123945,78.300601 v -7.602168 l 6.583599,-3.801074 6.583696,3.801074 v 7.602158 l -6.583696,3.801095 z M 32.707544,66.897359 V 59.29519 l 6.583696,-3.801075 6.583696,3.801075 v 7.602169 L 39.29124,70.698433 Z M 39.29124,55.494115 v -7.602169 l 6.583696,-3.801083 6.583598,3.801083 v 7.60216 l -6.583598,3.801084 z m 6.583696,-11.403243 v -7.602169 l 6.583598,-3.801074 6.583697,3.801074 v 7.60216 l -6.583697,3.801083 z M 12.956553,78.300601 v -7.602168 l 6.583696,-3.801074 6.583696,3.801074 v 7.602158 l -6.583696,3.801095 z M 19.540249,66.897359 V 59.29519 l 6.583696,-3.801075 6.583599,3.801075 v 7.602169 l -6.583599,3.801074 z m 6.583696,-11.403244 v -7.602169 l 6.583599,-3.801083 6.583696,3.801083 v 7.60216 l -6.583696,3.801084 z m 6.583599,-11.403252 v -7.60216 l 6.583696,-3.801074 6.583696,3.801074 v 7.60216 L 39.29124,47.891946 Z M 39.29124,32.687629 V 25.08546 l 6.583696,-3.801084 6.583598,3.801084 v 7.602159 l -6.583598,3.801084 z M 6.3729538,66.897359 V 59.29519 l 6.5835992,-3.801075 6.583696,3.801075 v 7.602169 l -6.583696,3.801083 z M 12.956553,55.494115 v -7.602169 l 6.583696,-3.801083 6.583696,3.801083 v 7.60216 l -6.583696,3.801084 z m 6.583696,-11.403252 v -7.60216 l 6.583696,-3.801074 6.583599,3.801074 v 7.60216 l -6.583599,3.801083 z M 26.123945,32.687629 V 25.08546 l 6.583599,-3.801084 6.583696,3.801084 v 7.602159 l -6.583696,3.801084 z M -0.21074159,55.494115 v -7.602169 l 6.58369539,-3.801083 6.5835992,3.801083 v 7.60216 L 6.3729538,59.29519 Z M 6.3729538,44.090863 v -7.60216 l 6.5835992,-3.801074 6.583696,3.801074 v 7.60216 l -6.583696,3.801083 z M 12.956553,32.687629 V 25.08546 l 6.583696,-3.801084 6.583696,3.801084 v 7.602159 l -6.583696,3.801084 z m 0,0 V 25.08546 l 6.583696,-3.801084 6.583696,3.801084 v 7.602159 l -6.583696,3.801084 z"
           transform="matrix(1.0657329,0,0,1.0657329,-2.1499656,-3.3979328)" />
      </g>
    </g>
    <g
       id="switch-off"
       transform="translate(0.51895078,-0.09002326)">
      <rect
         style="opacity:1;fill:url(#linearGradient1495);fill-opacity:1;stroke:url(#linearGradient1522);stroke-width:1;stroke-linecap:round;stroke-linejoin:bevel;stroke-miterlimit:4;stroke-dasharray:none;paint-order:markers stroke fill"
         id="SwitchOffInner"
         width="12.5"
         height="25"
         x="27.706167"
         y="40.578976"
         rx="2"
         ry="2" />
      <g
         id="SwitchOff1">
        <rect
           style="fill:url(#linearGradient13689);fill-opacity:1;stroke:none;stroke-width:1;stroke-linecap:round;stroke-linejoin:bevel;stroke-miterlimit:4;stroke-dasharray:none;stroke-opacity:1;paint-order:markers stroke fill"
           id="SwitchEdge1"
           width="10"
           height="22"
           x="28.956167"
           y="42.078976"
           rx="2.0000012"
           ry="2.0000012" />
        <path
           style="fill:url(#radialGradient16447);fill-opacity:1;stroke:none;stroke-width:0.264583px;stroke-linecap:butt;stroke-linejoin:miter;stroke-opacity:1"
           d="M 39.115434,53.327605 43.65326,68.790359 35.234787,76.243261 29.161589,60.925528 Z"
           id="SwitchOffShadow" />
        <rect
           style="fill:url(#linearGradient2181);fill-opacity:1;stroke:none;stroke-width:1;stroke-linecap:round;stroke-linejoin:bevel;stroke-miterlimit:4;stroke-dasharray:none;stroke-opacity:1;paint-order:markers stroke fill"
           id="SwitchOffMain"
           width="9.9999981"
           height="19.883331"
           x="28.956167"
           y="42.078976"
           rx="2.0000012"
           ry="2.0000012" />
      </g>
    </g>
    <g
       id="switch-on"
       transform="translate(32.268965,-0.09002326)">
      <rect
         style="opacity:1;fill:url(#linearGradient16763);fill-opacity:1;stroke:url(#linearGradient16765);stroke-width:1;stroke-linecap:round;stroke-linejoin:bevel;stroke-miterlimit:4;stroke-dasharray:none;paint-order:markers stroke fill"
         id="SwitchOnInner"
         width="12.5"
         height="25"
         x="27.706167"
         y="40.578976"
         rx="2"
         ry="2" />
      <g
         id="SwitchOn1">
        <path
           style="fill:url(#radialGradient16769);fill-opacity:1;stroke:none;stroke-width:0.264583px;stroke-linecap:butt;stroke-linejoin:miter;stroke-opacity:1"
           d="M 39.115434,44.331766 43.65326,59.79452 35.234787,67.247422 28.96774,53.943074 29.002985,44.262928 Z"
           id="SwitchOnShadow" />
        <rect
           style="fill:url(#linearGradient16767);fill-opacity:1;stroke:none;stroke-width:1;stroke-linecap:round;stroke-linejoin:bevel;stroke-miterlimit:4;stroke-dasharray:none;stroke-opacity:1;paint-order:markers stroke fill"
           id="SwitchOnEdge"
           width="10"
           height="22"
           x="28.956167"
           y="42.078976"
           rx="2.0000012"
           ry="2.0000012" />
        <rect
           style="fill:url(#linearGradient16771);fill-opacity:1;stroke:none;stroke-width:1;stroke-linecap:round;stroke-linejoin:bevel;stroke-miterlimit:4;stroke-dasharray:none;stroke-opacity:1;paint-order:markers stroke fill"
           id="SwitchOnMain"
           width="9.9999981"
           height="19.883331"
           x="28.956167"
           y="44.195644"
           rx="2.0000012"
           ry="2.0000012" />
      </g>
    </g>
  </g>
</svg>
