<?xml version="1.0" encoding="UTF-8"?>
<svg width="512" height="192" version="1.1" viewBox="0 0 135.47 50.8" xmlns="http://www.w3.org/2000/svg" xmlns:cc="http://creativecommons.org/ns#" xmlns:dc="http://purl.org/dc/elements/1.1/" xmlns:rdf="http://www.w3.org/1999/02/22-rdf-syntax-ns#" xmlns:xlink="http://www.w3.org/1999/xlink">
 <metadata>
  <rdf:RDF>
   <cc:Work rdf:about="">
    <dc:format>image/svg+xml</dc:format>
    <dc:type rdf:resource="http://purl.org/dc/dcmitype/StillImage"/>
    <dc:title/>
   </cc:Work>
  </rdf:RDF>
 </metadata>
 <defs>
  <linearGradient id="linearGradient2469">
   <stop stop-color="#edcc85" offset="0"/>
   <stop stop-color="#c8921d" stop-opacity=".014052" offset="1"/>
  </linearGradient>
  <linearGradient id="linearGradient2164">
   <stop stop-color="#edcc84" offset="0"/>
   <stop stop-color="#edcc84" stop-opacity="0" offset="1"/>
  </linearGradient>
  <linearGradient id="linearGradient1815">
   <stop stop-color="#edcc84" offset="0"/>
   <stop stop-color="#e5b64e" offset=".34552"/>
   <stop stop-color="#d29a1f" offset=".66908"/>
   <stop stop-color="#956d16" offset="1"/>
  </linearGradient>
  <linearGradient id="linearGradient1776">
   <stop stop-color="#dfdfdf" offset="0"/>
   <stop stop-color="#707070" offset=".5"/>
   <stop stop-color="#2b2b2b" stop-opacity="0" offset="1"/>
  </linearGradient>
  <linearGradient id="linearGradient891">
   <stop stop-color="#4a4a4a" offset="0"/>
   <stop stop-color="#c3c3c3" offset=".38524"/>
   <stop stop-color="#989898" offset=".63557"/>
   <stop stop-color="#393939" offset="1"/>
  </linearGradient>
  <linearGradient id="linearGradient893" x1="33.867" x2="33.867" y1="21.167" y2="31.75" gradientTransform="translate(0 -13.758)" gradientUnits="userSpaceOnUse" xlink:href="#linearGradient891"/>
  <linearGradient id="linearGradient943" x1="16.087" x2="16.087" y1="25.4" y2="27.517" gradientTransform="translate(-4.2333)" gradientUnits="userSpaceOnUse">
   <stop stop-color="#8b8b8b" offset="0"/>
   <stop stop-color="#a8a8a8" offset=".5"/>
   <stop stop-color="#707070" offset="1"/>
  </linearGradient>
  <linearGradient id="linearGradient957" x1="25.4" x2="31.75" y1="43.392" y2="43.392" gradientTransform="translate(-2.1167 -6.35)" gradientUnits="userSpaceOnUse" xlink:href="#linearGradient891"/>
  <linearGradient id="linearGradient968" x1="23.283" x2="29.633" y1="44.45" y2="44.45" gradientTransform="translate(0 2.6458)" gradientUnits="userSpaceOnUse">
   <stop stop-color="#343434" offset="0"/>
   <stop stop-color="#9e9e9e" offset=".38524"/>
   <stop stop-color="#7c7c7c" offset=".63557"/>
   <stop stop-color="#272727" offset="1"/>
  </linearGradient>
  <linearGradient id="linearGradient917" x1="25.4" x2="27.517" y1="36.142" y2="36.142" gradientTransform="matrix(1 0 0 1 -.00016903 -.00048809)" gradientUnits="userSpaceOnUse" xlink:href="#linearGradient915"/>
  <linearGradient id="linearGradient915">
   <stop stop-color="#8e6815" offset="0"/>
   <stop stop-color="#e5b64e" offset=".34552"/>
   <stop stop-color="#d29a1f" offset=".66908"/>
   <stop stop-color="#956d16" offset="1"/>
  </linearGradient>
  <radialGradient id="radialGradient929" cx="26.271" cy="34.022" r="1.0833" gradientTransform="matrix(1.3013 -.031391 .024268 1.006 -8.7402 2.7069)" gradientUnits="userSpaceOnUse" xlink:href="#linearGradient927"/>
  <linearGradient id="linearGradient927">
   <stop stop-color="#edcd85" offset="0"/>
   <stop stop-color="#b88517" offset="1"/>
  </linearGradient>
  <radialGradient id="radialGradient1780" cx="26.035" cy="31.596" r="3.175" gradientTransform="matrix(2 1.0277e-6 -3.7681e-7 .73333 -26.458 4.1348)" gradientUnits="userSpaceOnUse" xlink:href="#linearGradient1776"/>
  <radialGradient id="radialGradient1805" cx="26.458" cy="32.808" r=".84667" gradientTransform="matrix(1 0 0 .75 4.8e-7 9.2604)" gradientUnits="userSpaceOnUse" xlink:href="#linearGradient1815"/>
  <linearGradient id="linearGradient968-6" x1="23.283" x2="29.633" y1="44.45" y2="44.45" gradientTransform="translate(0 2.6458)" gradientUnits="userSpaceOnUse">
   <stop stop-color="#343434" offset="0"/>
   <stop stop-color="#8c8c8c" offset=".38524"/>
   <stop stop-color="#7c7c7c" offset=".63557"/>
   <stop stop-color="#272727" offset="1"/>
  </linearGradient>
  <filter id="filter2073" x="-.032272" y="-.4262" width="1.0645" height="1.8524" color-interpolation-filters="sRGB">
   <feGaussianBlur stdDeviation="0.040912515"/>
  </filter>
  <filter id="filter2073-5" x="-.032272" y="-.4262" width="1.0645" height="1.8524" color-interpolation-filters="sRGB">
   <feGaussianBlur stdDeviation="0.040912515"/>
  </filter>
  <linearGradient id="linearGradient2168" x1="26.458" x2="26.458" y1="33.232" y2="32.808" gradientTransform="translate(4.8e-7 1.0583)" gradientUnits="userSpaceOnUse" xlink:href="#linearGradient2164"/>
  <linearGradient id="linearGradient2184" x1="26.458" x2="26.458" y1="38.419" y2="38.1" gradientUnits="userSpaceOnUse" xlink:href="#linearGradient2164"/>
  <linearGradient id="linearGradient2200" x1="26.458" x2="26.458" y1="36.618" y2="35.348" gradientUnits="userSpaceOnUse" xlink:href="#linearGradient2469"/>
  <linearGradient id="linearGradient2230" x1="26.458" x2="26.458" y1="36.195" y2="35.983" gradientUnits="userSpaceOnUse" xlink:href="#linearGradient2164"/>
  <linearGradient id="linearGradient2240" x1="25.985" x2="26.932" y1="35.004" y2="35.004" gradientUnits="userSpaceOnUse" xlink:href="#linearGradient915"/>
  <radialGradient id="radialGradient1805-0" cx="26.458" cy="32.808" r=".84667" gradientTransform="matrix(1 0 0 .75 2.14e-6 11.165)" gradientUnits="userSpaceOnUse" xlink:href="#linearGradient1815"/>
  <linearGradient id="linearGradient2168-8" x1="26.458" x2="26.458" y1="33.232" y2="32.808" gradientTransform="translate(2.14e-6 2.9633)" gradientUnits="userSpaceOnUse" xlink:href="#linearGradient2164"/>
  <radialGradient id="radialGradient929-1" cx="26.271" cy="34.022" r="1.0833" gradientTransform="matrix(1.3013 -.031391 .024268 1.006 -8.7402 2.7069)" gradientUnits="userSpaceOnUse" xlink:href="#linearGradient927"/>
  <linearGradient id="linearGradient2200-2" x1="26.458" x2="26.458" y1="36.618" y2="35.56" gradientUnits="userSpaceOnUse" xlink:href="#linearGradient2469"/>
  <linearGradient id="linearGradient917-8" x1="25.4" x2="27.517" y1="36.142" y2="36.142" gradientTransform="matrix(1 0 0 1 -.00016882 -.00048684)" gradientUnits="userSpaceOnUse" xlink:href="#linearGradient915"/>
  <filter id="filter1756" x="-.096" y="-.16" width="1.192" height="1.32" color-interpolation-filters="sRGB">
   <feGaussianBlur stdDeviation="0.084666663"/>
  </filter>
  <filter id="filter1760" x="-.18857" y="-.33" width="1.3771" height="1.66" color-interpolation-filters="sRGB">
   <feGaussianBlur stdDeviation="0.23283332"/>
  </filter>
  <filter id="filter1764" x="-.18144" y="-.35437" width="1.3629" height="1.7087" color-interpolation-filters="sRGB">
   <feGaussianBlur stdDeviation="0.096012333"/>
  </filter>
  <filter id="filter1768" x="-.18857" y="-.33" width="1.3771" height="1.66" color-interpolation-filters="sRGB">
   <feGaussianBlur stdDeviation="0.23283332"/>
  </filter>
  <linearGradient id="linearGradient1779" x1="23.177" x2="29.739" y1="44.45" y2="44.45" gradientTransform="translate(0 2.6458)" gradientUnits="userSpaceOnUse">
   <stop stop-color="#1b1b1b" offset="0"/>
   <stop stop-color="#7c7c7c" offset=".46774"/>
   <stop stop-color="#b7b7b7" offset=".7258"/>
   <stop stop-color="#1c1c1c" offset="1"/>
  </linearGradient>
  <linearGradient id="linearGradient1871" x1="26.458" x2="26.458" y1="41.91" y2="46.99" gradientTransform="translate(0 2.6458)" gradientUnits="userSpaceOnUse">
   <stop stop-color="#040404" offset="0"/>
   <stop stop-color="#1e1e1e" stop-opacity=".028103" offset="1"/>
  </linearGradient>
  <linearGradient id="linearGradient4842" x1="26.458" x2="26.458" y1="42.333" y2="57.15" gradientUnits="userSpaceOnUse">
   <stop stop-color="#195eae" offset="0"/>
   <stop stop-color="#1480e7" offset=".28571"/>
   <stop stop-color="#0897f4" offset=".57143"/>
   <stop stop-color="#64b4e9" offset="1"/>
  </linearGradient>
  <radialGradient id="radialGradient5200" cx="25.929" cy="49.742" r="1.5875" gradientTransform="matrix(1 0 0 4.6667 2.4131 -182.28)" gradientUnits="userSpaceOnUse">
   <stop stop-color="#e8f5fd" offset="0"/>
   <stop stop-color="#fff" stop-opacity="0" offset="1"/>
  </radialGradient>
  <filter id="filter5206" x="-.033721" y="-.01863" width="1.0674" height="1.0373" color-interpolation-filters="sRGB">
   <feGaussianBlur stdDeviation="0.11953386"/>
  </filter>
  <filter id="filter5232" x="-.020571" y="-.0288" width="1.0411" height="1.0576" color-interpolation-filters="sRGB">
   <feGaussianBlur stdDeviation="0.12699999"/>
  </filter>
  <filter id="filter1011" x="-.041143" y="-.0576" width="1.0823" height="1.1152" color-interpolation-filters="sRGB">
   <feGaussianBlur stdDeviation="0.25399999"/>
  </filter>
  <filter id="filter1023" x="-.038726" y="-.51144" width="1.0775" height="2.0229" color-interpolation-filters="sRGB">
   <feGaussianBlur stdDeviation="0.049095018"/>
  </filter>
  <linearGradient id="linearGradient1035" x1="3.175" x2="3.175" y1="20.108" y2="32.808" gradientTransform="translate(0 -13.758)" gradientUnits="userSpaceOnUse">
   <stop stop-color="#373737" offset="0"/>
   <stop stop-color="#c3c3c3" offset=".33333"/>
   <stop stop-color="#989898" offset=".58333"/>
   <stop stop-color="#393939" offset="1"/>
  </linearGradient>
  <linearGradient id="linearGradient1063" x1="64.558" x2="64.558" y1="22.225" y2="30.692" gradientTransform="translate(0 -13.758)" gradientUnits="userSpaceOnUse">
   <stop stop-color="#4a4a4a" offset="0"/>
   <stop stop-color="#c3c3c3" offset=".25"/>
   <stop stop-color="#989898" offset=".5"/>
   <stop stop-color="#393939" offset="1"/>
  </linearGradient>
  <filter id="filter1323" x="-.079" y="-.24947" width="1.158" height="1.4989" color-interpolation-filters="sRGB">
   <feGaussianBlur stdDeviation="2.0902082"/>
  </filter>
  <linearGradient id="linearGradient1105" x1="26.458" x2="26.458" y1="28.325" y2="43.642" gradientUnits="userSpaceOnUse">
   <stop stop-color="#fff" stop-opacity=".78431" offset="0"/>
   <stop stop-color="#fff" stop-opacity=".5098" offset=".11997"/>
   <stop stop-color="#fdfdfd" stop-opacity="0" offset=".29271"/>
   <stop stop-opacity="0" offset="1"/>
  </linearGradient>
  <linearGradient id="linearGradient1143" x1="26.458" x2="26.458" y1="28.325" y2="43.642" gradientTransform="translate(-52.917 -71.967)" gradientUnits="userSpaceOnUse">
   <stop stop-color="#fff" stop-opacity=".39216" offset="0"/>
   <stop stop-color="#fff" stop-opacity=".23529" offset=".11997"/>
   <stop stop-color="#fff" stop-opacity="0" offset=".29271"/>
   <stop stop-color="#fff" stop-opacity=".051522" offset=".70729"/>
   <stop stop-color="#fff" stop-opacity=".5098" offset=".88819"/>
   <stop stop-color="#fff" stop-opacity=".70588" offset="1"/>
  </linearGradient>
  <linearGradient id="linearGradient1094" x1="21.975" x2="30.692" y1="28.325" y2="39.158" gradientUnits="userSpaceOnUse">
   <stop offset="0"/>
   <stop stop-opacity="0" offset="1"/>
  </linearGradient>
 </defs>
 <g transform="translate(0 -13.758)" filter="url(#filter1323)">
  <rect x="2.1167" y="30.692" width="63.5" height="3.175" ry="0"/>
  <path transform="translate(15.875)" d="m26.458 27.517s2.3862 0.2695 3.175 1.0583 1.0583 3.175 1.0583 3.175v12.7s0.08814 3.3382-1.0583 4.2333c-0.83418 0.65131-2.1167 1.0583-3.175 1.0583s-2.1167-1.0583-2.1167-1.0583z"/>
  <path d="m26.458 27.464s2.3862 0.2695 3.175 1.0583 1.0583 3.175 1.0583 3.175v12.7s0.08814 3.3382-1.0583 4.2333c-0.83418 0.65131-3.175 1.0583-3.175 1.0583v-12.171z"/>
 </g>
 <rect x="4.2333" y="7.4083" width="59.267" height="10.583" fill="url(#linearGradient893)"/>
 <g transform="translate(0 -13.758)">
  <rect x="8.4667" y="25.4" width="6.35" height="2.1167" fill="#0897f4" stroke="url(#linearGradient943)" stroke-linecap="round" stroke-linejoin="round" stroke-width=".212"/>
  <path d="m9.525 26.035c1.0586-0.07057 2.1169-0.14113 2.646-0.10599 0.52903 0.03514 0.52903 0.17628-1e-3 0.21164-0.53004 0.03535-1.5864-0.03507-2.645-0.10564" fill="#8dbfdc" filter="url(#filter2073)"/>
  <path transform="translate(1.6933 .42333)" d="m9.525 26.035c1.0586-0.07057 2.1169-0.14113 2.646-0.10599 0.52903 0.03514 0.52903 0.17628-1e-3 0.21164-0.53004 0.03535-1.5864-0.03507-2.645-0.10564" fill="#a3cce1" filter="url(#filter1023)"/>
  <path transform="translate(-.635 1.0583)" d="m10.16 26.004c0.84695-0.0602 1.6936-0.12037 2.1168-0.08004 0.42319 0.04033 0.42319 0.18148-8.16e-4 0.21163-0.42401 0.03016-1.2691-0.05063-2.116-0.13159" fill="#8dbfdc" filter="url(#filter2073-5)"/>
 </g>
 <rect x="3.175" y="6.35" width="1.0583" height="12.7" fill="url(#linearGradient1035)" stroke="#757575" stroke-linecap="round" stroke-linejoin="round" stroke-width=".1"/>
 <rect x="63.5" y="8.4667" width="1.0583" height="8.4667" fill="url(#linearGradient1063)" stroke="#4a4a4a" stroke-linecap="round" stroke-linejoin="round" stroke-width=".1"/>
 <g transform="translate(15.875 -13.758)">
  <path d="m23.283 29.633c0.84667-3.3867 5.5033-3.3867 6.35 0v16.933h-6.35z" fill="url(#linearGradient957)" stroke="url(#radialGradient1780)" stroke-linecap="round" stroke-linejoin="round" stroke-width=".212"/>
  <ellipse cx="26.458" cy="47.096" rx="3.175" ry="2.54" fill="url(#linearGradient1779)" stroke="url(#linearGradient968-6)" stroke-linecap="round" stroke-linejoin="round" stroke-width=".212"/>
  <rect x="24.342" y="30.692" width="4.2333" height="4.2333" fill="none"/>
  <path d="m26.458 49.636c-1.7535 0-3.175-1.1372-3.175-2.54s1.4215-2.54 3.175-2.54 3.175 1.1372 3.175 2.54-1.4215 2.54-3.175 2.54" fill="url(#linearGradient1871)"/>
 </g>
 <g transform="translate(0 -13.758)">
  <path d="m23.283 29.633c0.84667-3.3867 5.5033-3.3867 6.35 0v16.933h-6.35z" fill="url(#linearGradient957)" stroke="url(#radialGradient1780)" stroke-linecap="round" stroke-linejoin="round" stroke-width=".212"/>
  <ellipse cx="26.458" cy="47.096" rx="3.175" ry="2.54" fill="#4c9ac8" stroke="url(#linearGradient968)" stroke-linecap="round" stroke-linejoin="round" stroke-width=".212"/>
  <rect x="24.342" y="30.692" width="4.2333" height="4.2333" fill="none"/>
  <g transform="translate(0 2.6458)">
   <ellipse transform="matrix(.94591 0 0 .94591 1.4312 2.9769)" cx="26.458" cy="55.033" rx="7.4083" ry="5.2917" fill="#8ec5f3" filter="url(#filter1011)" stroke="#cfd5ff" stroke-linecap="round" stroke-linejoin="round" stroke-opacity=".637" stroke-width=".1"/>
   <ellipse transform="matrix(.74404 0 0 .74404 6.7723 14.086)" cx="26.458" cy="55.033" rx="7.4083" ry="5.2917" fill="#89c3f5" filter="url(#filter5232)" stroke="#dce1ff" stroke-linecap="round" stroke-linejoin="round" stroke-width=".1"/>
   <path d="m23.283 44.45-1.0583 9.525c-0.51804 4.6623 8.9836 4.6525 8.4667 0l-1.0583-9.525c-0.69232-3.175-5.6654-3.175-6.35 0z" fill="url(#linearGradient4842)" filter="url(#filter5206)"/>
  </g>
  <ellipse transform="rotate(3.225)" cx="28.342" cy="49.845" rx="1.5875" ry="7.4083" fill="url(#radialGradient5200)"/>
 </g>
 <g transform="translate(0 -13.758)">
  <rect x="22.225" y="28.575" width="8.4667" height="14.817" rx="1.4552" fill-opacity=".5082" stroke="#000" stroke-linecap="round" stroke-linejoin="round" stroke-opacity=".5098" stroke-width=".5"/>
  <rect x="22.225" y="28.575" width="8.4667" height="14.817" rx="1.4552" fill="url(#linearGradient1105)"/>
 </g>
 <g transform="matrix(1.556 0 0 1.556 -14.711 -34.509)">
  <g>
   <ellipse cx="26.458" cy="38.1" rx="1.4817" ry=".84667" fill="#070501" filter="url(#filter1768)" opacity=".5"/>
   <path d="m25.4 35.983h2.1167v2.1167c0 0.42333-2.1167 0.42333-2.1167 0z" fill="url(#linearGradient917)" stroke="url(#linearGradient2184)" stroke-linecap="round" stroke-linejoin="round" stroke-width=".1"/>
   <ellipse cx="26.458" cy="35.983" rx="1.058" ry=".63502" fill="url(#radialGradient929)" stroke="url(#linearGradient2200)" stroke-linecap="round" stroke-linejoin="round" stroke-width=".1"/>
   <ellipse cx="26.458" cy="35.983" rx=".635" ry=".32512" fill="#070501" filter="url(#filter1764)" opacity=".5"/>
   <path d="m26.035 33.867h0.84667l-1e-6 2.1167c-0.21167 0.21167-0.635 0.21167-0.84667 0z" fill="url(#linearGradient2240)" stroke="url(#linearGradient2230)" stroke-linecap="round" stroke-linejoin="round" stroke-width=".1"/>
   <ellipse cx="26.458" cy="33.867" rx=".84667" ry=".635" fill="url(#radialGradient1805)"/>
  </g>
  <path d="m27.093 33.867c0 0.2338-0.2843 0.42333-0.635 0.42333s-0.635-0.18953-0.635-0.42333" fill="none" stroke="url(#linearGradient2168)" stroke-linecap="round" stroke-linejoin="round" stroke-width=".1"/>
 </g>
 <g transform="translate(15.875 -13.758)">
  <rect x="22.225" y="28.575" width="8.4667" height="14.817" rx="1.4552" fill-opacity=".5082" stroke="#000" stroke-linecap="round" stroke-linejoin="round" stroke-opacity=".5098" stroke-width=".5"/>
  <rect transform="scale(-1)" x="-30.692" y="-43.392" width="8.4667" height="14.817" rx="1.4552" fill="url(#linearGradient1143)"/>
  <rect x="22.225" y="28.575" width="8.4667" height="14.817" rx="1.4552" fill="none" stroke="url(#linearGradient1094)" stroke-linecap="round" stroke-linejoin="round" stroke-opacity=".5098" stroke-width=".5"/>
 </g>
 <g transform="matrix(1.556 0 0 1.556 1.1638 -34.509)">
  <g>
   <ellipse cx="26.458" cy="38.1" rx="1.4817" ry=".84667" fill="#070501" filter="url(#filter1760)" opacity=".5"/>
   <path d="m25.4 35.983h2.1167v2.1167c0 0.42333-2.1167 0.42333-2.1167 0z" fill="url(#linearGradient917-8)" stroke="url(#linearGradient2184)" stroke-linecap="round" stroke-linejoin="round" stroke-width=".1"/>
   <ellipse cx="26.458" cy="35.983" rx="1.0583" ry=".63502" fill="url(#radialGradient929-1)" stroke="url(#linearGradient2200-2)" stroke-linecap="round" stroke-linejoin="round" stroke-width=".1"/>
   <ellipse cx="26.458" cy="35.983" rx=".84667" ry=".51822" fill="#070501" filter="url(#filter1756)" opacity=".5"/>
   <ellipse cx="26.458" cy="35.772" rx=".84667" ry=".635" fill="url(#radialGradient1805-0)"/>
  </g>
  <path d="m27.093 35.772c0 0.2338-0.2843 0.42333-0.635 0.42333s-0.635-0.18953-0.635-0.42333" fill="none" stroke="url(#linearGradient2168-8)" stroke-linecap="round" stroke-linejoin="round" stroke-width=".1"/>
 </g>
</svg>
