<?xml version="1.0" encoding="UTF-8" standalone="no"?>
<!-- Created with Inkscape (http://www.inkscape.org/) -->

<svg
   width="256"
   height="256"
   viewBox="0 0 256 256.00001"
   version="1.1"
   id="svg1"
   inkscape:version="1.4 (e7c3feb100, 2024-10-09)"
   sodipodi:docname="logo.svg"
   xmlns:inkscape="http://www.inkscape.org/namespaces/inkscape"
   xmlns:sodipodi="http://sodipodi.sourceforge.net/DTD/sodipodi-0.dtd"
   xmlns:xlink="http://www.w3.org/1999/xlink"
   xmlns="http://www.w3.org/2000/svg"
   xmlns:svg="http://www.w3.org/2000/svg">
  <sodipodi:namedview
     id="namedview1"
     pagecolor="#ffffff"
     bordercolor="#666666"
     borderopacity="1.0"
     inkscape:showpageshadow="2"
     inkscape:pageopacity="0.0"
     inkscape:pagecheckerboard="0"
     inkscape:deskcolor="#d1d1d1"
     inkscape:document-units="mm"
     inkscape:zoom="1.0393815"
     inkscape:cx="-25.014877"
     inkscape:cy="199.63796"
     inkscape:window-width="1920"
     inkscape:window-height="1006"
     inkscape:window-x="0"
     inkscape:window-y="0"
     inkscape:window-maximized="1"
     inkscape:current-layer="svg1" />
  <defs
     id="defs1">
    <radialGradient
       inkscape:collect="always"
       xlink:href="#linearGradient4870"
       id="radialGradient2714"
       gradientUnits="userSpaceOnUse"
       gradientTransform="matrix(2.217544,0,0,4.05646,-85.729355,-164.52919)"
       cx="96.8349"
       cy="78.852486"
       fx="96.8349"
       fy="78.852486"
       r="26.26219" />
    <linearGradient
       inkscape:collect="always"
       id="linearGradient4870">
      <stop
         style="stop-color:#fd0;stop-opacity:1;"
         offset="0"
         id="stop4872" />
      <stop
         style="stop-color:#fd0;stop-opacity:0;"
         offset="1"
         id="stop4874" />
    </linearGradient>
    <linearGradient
       inkscape:collect="always"
       xlink:href="#linearGradient4882"
       id="linearGradient2711"
       gradientUnits="userSpaceOnUse"
       gradientTransform="matrix(2.217544,0,0,2.217544,-85.729355,-32.260749)"
       x1="112.96474"
       y1="13.498544"
       x2="102.22598"
       y2="68.116089" />
    <linearGradient
       inkscape:collect="always"
       id="linearGradient4882">
      <stop
         style="stop-color:#cf4913;stop-opacity:1;"
         offset="0"
         id="stop4884" />
      <stop
         style="stop-color:#cf4913;stop-opacity:0;"
         offset="1"
         id="stop4886" />
    </linearGradient>
  </defs>
  <path
     sodipodi:nodetypes="ccccccc"
     id="path4877"
     d="M 167.04932,13.408175 C 139.24994,27.646295 93.05886,99.084189 63.000004,136.86117 l 48.199716,4.59912 C 103.8427,173.43325 94.51352,233.60611 80.91808,242.59183 108.98008,239.81477 161.55122,149.86975 193,109.15887 l -54.40554,-4.59114 c 8.48528,-28.857099 16.10152,-73.140455 28.45486,-91.159555 z"
     style="opacity:0.418033;fill:#cf4913;fill-opacity:0.75;fill-rule:evenodd;stroke:none;stroke-width:2px;stroke-linecap:butt;stroke-linejoin:miter;stroke-opacity:1" />
  <path
     style="fill:#e3ad00;fill-opacity:1;fill-rule:evenodd;stroke:none;stroke-width:2px;stroke-linecap:butt;stroke-linejoin:miter;stroke-opacity:1"
     d="M 160.94694,20.709615 C 136.14668,39.071575 100.82762,96.263429 70.768764,134.04041 l 44.263276,3.84932 c -7.357,31.97296 -13.49952,82.21108 -22.22134,95.88296 17.5649,-10.6499 62.98434,-81.28028 94.43312,-121.99118 l -51.75258,-4.50064 c 8.48522,-28.857079 13.1023,-68.552175 25.4557,-86.571255 z"
     id="path3978"
     sodipodi:nodetypes="ccccccc" />
  <path
     sodipodi:nodetypes="ccccccc"
     id="path4868"
     d="M 160.94694,20.709615 C 136.14668,39.071575 100.82762,96.263429 70.768764,134.04041 l 44.263276,3.84932 c -7.357,31.97296 -13.49952,82.21108 -22.22134,95.88296 17.5649,-10.6499 62.98434,-81.28028 94.43312,-121.99118 l -51.75258,-4.50064 c 8.48522,-28.857079 13.1023,-68.552175 25.4557,-86.571255 z"
     style="fill:url(#radialGradient2714);fill-opacity:1;fill-rule:evenodd;stroke:none;stroke-width:2px;stroke-linecap:butt;stroke-linejoin:miter;stroke-opacity:1" />
  <path
     style="opacity:0.418033;fill:url(#linearGradient2711);fill-opacity:1;fill-rule:evenodd;stroke:none;stroke-width:2px;stroke-linecap:butt;stroke-linejoin:miter;stroke-opacity:1"
     d="M 167.04932,13.408175 C 139.24994,27.646295 93.05886,99.084189 63.000004,136.86117 l 48.199716,4.59912 C 103.8427,173.43325 94.51352,233.60611 80.91808,242.59183 108.98008,239.81477 161.55122,149.86975 193,109.15887 l -54.40554,-4.59114 c 8.48528,-28.857099 16.10152,-73.140455 28.45486,-91.159555 z"
     id="path4880"
     sodipodi:nodetypes="ccccccc" />
</svg>
