<svg height="112.68355" viewBox="0 0 58.534794 112.68355" width="58.534794" xmlns="http://www.w3.org/2000/svg" xmlns:xlink="http://www.w3.org/1999/xlink">
  <linearGradient id="a">
    <stop offset="0" stop-opacity=".5"/>
    <stop offset="1" stop-opacity="0"/>
  </linearGradient>
  <linearGradient id="b" gradientUnits="userSpaceOnUse" x1="29.589" x2="29.389512" y1="29.107681" y2="82.387847">
    <stop offset="0"/>
    <stop offset="1" stop-color="#404040"/>
  </linearGradient>
  <linearGradient id="c" gradientUnits="userSpaceOnUse" x1="19.039843" x2="40.861104" y1="27.822631" y2="83.024004">
    <stop offset="0" stop-color="#999"/>
    <stop offset="1" stop-color="#ccc"/>
  </linearGradient>
  <radialGradient id="d" cx="35.794758" cy="59.474323" gradientTransform="matrix(2.8410916 .00183055 -.0029873 4.6364235 -69.049943 -236.42327)" gradientUnits="userSpaceOnUse" r="7.245835" xlink:href="#a"/>
  <linearGradient id="e" gradientUnits="userSpaceOnUse" x1="39.522521" x2="18.59843" y1="73.3264" y2="73.343273">
    <stop offset="0" stop-color="#e5e5e5"/>
    <stop offset="1" stop-color="#fff"/>
  </linearGradient>
  <linearGradient id="f" gradientUnits="userSpaceOnUse" x1="29.102102" x2="29.343852" y1="37.245959" y2="84.345876">
    <stop offset="0" stop-color="#bfbfbf"/>
    <stop offset=".41512719" stop-color="#d9d9d9"/>
    <stop offset=".42999968" stop-color="#e5e5e5"/>
    <stop offset="1" stop-color="#fff"/>
  </linearGradient>
  <linearGradient id="g" gradientUnits="userSpaceOnUse" x1="39.522525" x2="18.598434" y1="73.326398" y2="73.343271">
    <stop offset="0" stop-color="#8c8c8c"/>
    <stop offset="1" stop-color="#ccc"/>
  </linearGradient>
  <radialGradient id="h" cx="36.74942" cy="61.124443" gradientTransform="matrix(2.1659499 0 0 3.4250131 -44.77677 -138.21163)" gradientUnits="userSpaceOnUse" r="7.245835" xlink:href="#a"/>
  <rect fill="url(#b)" height="54.148746" rx="4.3319" stroke="url(#c)" stroke-linecap="round" stroke-linejoin="bevel" stroke-width="2.16595" width="27.074373" x="15.73021" y="29.267401"/>
  <rect fill="url(#g)" height="47.650902" rx="4.331903" width="21.659481" x="18.437645" y="32.516327"/>
  <path d="m40.451651 35.377709 9.828704 33.49155-18.233991 16.142613-13.57411-28.816551.07633-20.966712z" fill="url(#d)" opacity=".664924"/>
  <rect fill="url(#e)" height="45.650906" rx="4.331903" width="21.659504" x="18.437649" y="32.516327"/>
  <path d="m39.945282 58.862244 9.828669 33.49155-18.233945 16.142616-13.154245-33.177446z" fill="url(#h)" opacity=".688911"/>
  <rect fill="url(#f)" height="42.992126" rx="4.331903" width="21.396448" x="18.700699" y="35.17511"/>
</svg>
