<svg height="192.50024" viewBox="0 0 73.966919 192.50025" width="73.966919" xmlns="http://www.w3.org/2000/svg" xmlns:xlink="http://www.w3.org/1999/xlink">
  <linearGradient id="a" gradientTransform="matrix(.67709918 0 0 1.827381 14.98238 -493.38795)" gradientUnits="userSpaceOnUse" x1="14.566191" x2="53.988441" xlink:href="#k" y1="252.09871" y2="252.09871"/>
  <radialGradient id="b" cx="310.44345" cy="-285.63126" gradientTransform="matrix(.04223023 -.02356009 .02626614 .04708075 27.09993 72.454839)" gradientUnits="userSpaceOnUse" r="483.97446">
    <stop offset="0"/>
    <stop offset="1" stop-opacity="0"/>
  </radialGradient>
  <filter id="c" color-interpolation-filters="sRGB" height="1.094911" width="1.128442" x="-.064221" y="-.047455">
    <feGaussianBlur stdDeviation="1.1855987"/>
  </filter>
  <filter id="d" color-interpolation-filters="sRGB" height="1.363269" width="1.103477" x="-.051739" y="-.181634">
    <feGaussianBlur stdDeviation=".83572366"/>
  </filter>
  <filter id="e" color-interpolation-filters="sRGB" height="1.0405" width="1.081" x="-.0405" y="-.02025">
    <feGaussianBlur stdDeviation=".421875"/>
  </filter>
  <linearGradient id="f" gradientUnits="userSpaceOnUse" x1="167.346038" x2="167.824962" y1="40.652236" y2="148.426036">
    <stop offset="0" stop-color="#fafafa"/>
    <stop offset="1" stop-color="#d9d9d9"/>
  </linearGradient>
  <filter id="g" color-interpolation-filters="sRGB" height="1.096" width="1.096" x="-.048" y="-.048">
    <feGaussianBlur stdDeviation="1.1680378"/>
  </filter>
  <radialGradient id="h" cx="8.819895" cy="288.44736" gradientTransform="matrix(4.552356 0 0 4.5523492 -7.443707 -1261.42)" gradientUnits="userSpaceOnUse" r="6.414469">
    <stop offset="0" stop-color="#5cff69"/>
    <stop offset=".7570765" stop-color="#00e113"/>
    <stop offset="1" stop-color="#007109"/>
  </radialGradient>
  <filter id="i" color-interpolation-filters="sRGB" height="1.038864" width="1.037884" x="-.018942" y="-.019432">
    <feGaussianBlur stdDeviation=".31663494"/>
  </filter>
  <radialGradient id="j" cx="8.819895" cy="288.44736" gradientTransform="matrix(4.552356 0 0 4.5523492 -7.443707 -1261.42)" gradientUnits="userSpaceOnUse" r="6.414469">
    <stop offset="0" stop-color="#ff5c5c"/>
    <stop offset=".7570765" stop-color="#e10200"/>
    <stop offset="1" stop-color="#710000"/>
  </radialGradient>
  <linearGradient id="k">
    <stop offset="0" stop-color="#fff"/>
    <stop offset="1" stop-color="#fff" stop-opacity="0"/>
  </linearGradient>
  <linearGradient id="l" gradientUnits="userSpaceOnUse" x1="159.252461" x2="200.988087" y1="48.478623" y2="143.090232">
    <stop offset="0" stop-color="#fff"/>
    <stop offset="1" stop-color="#ccc"/>
  </linearGradient>
  <linearGradient id="m" gradientTransform="matrix(0 1 -1 0 -39.9985 140.0029)" gradientUnits="userSpaceOnUse" x1="-118.83423" x2="-56.458157" y1="-73.400169" y2="-73.400169">
    <stop offset="0" stop-color="#e5e5e5"/>
    <stop offset="1" stop-color="#bfbfbf"/>
  </linearGradient>
  <linearGradient id="n" gradientUnits="userSpaceOnUse" x1="50.176556" x2="50.187046" xlink:href="#k" y1="81.868889" y2="75.725929"/>
  <linearGradient id="o" gradientUnits="userSpaceOnUse" x1="33.401665" x2="33.401665" y1="83.044739" y2="21.668669">
    <stop offset="0" stop-color="#dfdfdf"/>
    <stop offset="1" stop-color="#f4f4f4"/>
  </linearGradient>
  <g transform="matrix(2.1659499 0 0 2.1659499 -35.329456 -15.034814)">
    <path d="m11.248154 24.142144v59.96034h44.307025v-59.96034z" filter="url(#c)" opacity=".3"/>
    <path d="m16.788448 83.044742h33.226437m0-61.376073h-33.226437" fill="none" stroke="url(#m)" stroke-linecap="square" stroke-linejoin="bevel"/>
    <path d="m16.250668 21.668669v61.376073h34.301997v-61.376073z" fill="url(#o)"/>
    <path d="m14.018301 71.472705v11.042716h38.766731v-11.042716z" fill="url(#n)" filter="url(#d)"/>
  </g>
  <rect filter="url(#e)" height="50" opacity=".5" rx="3" transform="matrix(2.1659499 0 0 2.1659499 -84.734191 -16.557387)" width="25" x="44.208469" y="27.997284"/>
  <g transform="translate(-142.80522 2)">
    <rect fill="url(#f)" height="108.29749" rx="6.49785" stroke="url(#l)" stroke-linecap="round" stroke-linejoin="bevel" stroke-width="2.16595" width="54.148746" x="152.71431" y="40.973278"/>
    <g transform="matrix(.29050417 0 0 .29050417 170.28699 38.843613)">
      <circle cx="34.194111" cy="52.684044" fill="#111" filter="url(#g)" opacity=".5" r="29.200945"/>
      <circle cx="32.707592" cy="51.693031" fill="url(#h)" r="29.200945" stroke="#005c08" stroke-width="1.20448"/>
      <ellipse cx="38.191536" cy="-32.707584" fill="url(#a)" rx="13.346388" ry="20.512936" transform="rotate(90)"/>
      <path d="m39.29124 78.300601v-7.602168l6.583696-3.801074 6.583598 3.801074v7.602158l-6.583598 3.801095zm6.583696-11.403242v-7.602169l6.583598-3.801075 6.583697 3.801075v7.602169l-6.583697 3.801083zm6.583598-11.403244v-7.602169l6.583697-3.801083 6.583695 3.801083v7.60216l-6.583695 3.801084zm-26.334589 22.806486v-7.602168l6.583599-3.801074 6.583696 3.801074v7.602158l-6.583696 3.801095zm6.583599-11.403242v-7.602169l6.583696-3.801075 6.583696 3.801075v7.602169l-6.583696 3.801074zm6.583696-11.403244v-7.602169l6.583696-3.801083 6.583598 3.801083v7.60216l-6.583598 3.801084zm6.583696-11.403243v-7.602169l6.583598-3.801074 6.583697 3.801074v7.60216l-6.583697 3.801083zm-32.918383 34.209729v-7.602168l6.583696-3.801074 6.583696 3.801074v7.602158l-6.583696 3.801095zm6.583696-11.403242v-7.602169l6.583696-3.801075 6.583599 3.801075v7.602169l-6.583599 3.801074zm6.583696-11.403244v-7.602169l6.583599-3.801083 6.583696 3.801083v7.60216l-6.583696 3.801084zm6.583599-11.403252v-7.60216l6.583696-3.801074 6.583696 3.801074v7.60216l-6.583696 3.801083zm6.583696-11.403234v-7.602169l6.583696-3.801084 6.583598 3.801084v7.602159l-6.583598 3.801084zm-32.9182862 34.20973v-7.602169l6.5835992-3.801075 6.583696 3.801075v7.602169l-6.583696 3.801083zm6.5835992-11.403244v-7.602169l6.583696-3.801083 6.583696 3.801083v7.60216l-6.583696 3.801084zm6.583696-11.403252v-7.60216l6.583696-3.801074 6.583599 3.801074v7.60216l-6.583599 3.801083zm6.583696-11.403234v-7.602169l6.583599-3.801084 6.583696 3.801084v7.602159l-6.583696 3.801084zm-26.33468659 22.806486v-7.602169l6.58369539-3.801083 6.5835992 3.801083v7.60216l-6.5835992 3.801084zm6.58369539-11.403252v-7.60216l6.5835992-3.801074 6.583696 3.801074v7.60216l-6.583696 3.801083zm6.5835992-11.403234v-7.602169l6.583696-3.801084 6.583696 3.801084v7.602159l-6.583696 3.801084zm0 0v-7.602169l6.583696-3.801084 6.583696 3.801084v7.602159l-6.583696 3.801084z" style="fill:none;stroke-width:.974299;stroke-linecap:round;stroke-linejoin:bevel;stroke:url(#b);filter:url(#i)" transform="matrix(1.0657329 0 0 1.0657329 -2.149966 -3.397933)"/>
      <ellipse cx="32.707592" cy="51.693031" opacity=".5" rx="29.201" ry="29.200945"/>
    </g>
    <g transform="matrix(.29050417 0 0 .29050417 170.28699 121.36636)">
      <circle cx="33.946358" cy="52.931797" filter="url(#g)" opacity=".5" r="29.200945"/>
      <circle cx="32.707592" cy="51.693031" fill="url(#j)" r="29.200945" stroke="#5c0000" stroke-width="1.20448"/>
      <ellipse cx="38.191536" cy="-32.707584" fill="url(#a)" rx="13.346388" ry="20.512936" transform="rotate(90)"/>
      <path d="m39.29124 78.300601v-7.602168l6.583696-3.801074 6.583598 3.801074v7.602158l-6.583598 3.801095zm6.583696-11.403242v-7.602169l6.583598-3.801075 6.583697 3.801075v7.602169l-6.583697 3.801083zm6.583598-11.403244v-7.602169l6.583697-3.801083 6.583695 3.801083v7.60216l-6.583695 3.801084zm-26.334589 22.806486v-7.602168l6.583599-3.801074 6.583696 3.801074v7.602158l-6.583696 3.801095zm6.583599-11.403242v-7.602169l6.583696-3.801075 6.583696 3.801075v7.602169l-6.583696 3.801074zm6.583696-11.403244v-7.602169l6.583696-3.801083 6.583598 3.801083v7.60216l-6.583598 3.801084zm6.583696-11.403243v-7.602169l6.583598-3.801074 6.583697 3.801074v7.60216l-6.583697 3.801083zm-32.918383 34.209729v-7.602168l6.583696-3.801074 6.583696 3.801074v7.602158l-6.583696 3.801095zm6.583696-11.403242v-7.602169l6.583696-3.801075 6.583599 3.801075v7.602169l-6.583599 3.801074zm6.583696-11.403244v-7.602169l6.583599-3.801083 6.583696 3.801083v7.60216l-6.583696 3.801084zm6.583599-11.403252v-7.60216l6.583696-3.801074 6.583696 3.801074v7.60216l-6.583696 3.801083zm6.583696-11.403234v-7.602169l6.583696-3.801084 6.583598 3.801084v7.602159l-6.583598 3.801084zm-32.9182862 34.20973v-7.602169l6.5835992-3.801075 6.583696 3.801075v7.602169l-6.583696 3.801083zm6.5835992-11.403244v-7.602169l6.583696-3.801083 6.583696 3.801083v7.60216l-6.583696 3.801084zm6.583696-11.403252v-7.60216l6.583696-3.801074 6.583599 3.801074v7.60216l-6.583599 3.801083zm6.583696-11.403234v-7.602169l6.583599-3.801084 6.583696 3.801084v7.602159l-6.583696 3.801084zm-26.33468659 22.806486v-7.602169l6.58369539-3.801083 6.5835992 3.801083v7.60216l-6.5835992 3.801084zm6.58369539-11.403252v-7.60216l6.5835992-3.801074 6.583696 3.801074v7.60216l-6.583696 3.801083zm6.5835992-11.403234v-7.602169l6.583696-3.801084 6.583696 3.801084v7.602159l-6.583696 3.801084zm0 0v-7.602169l6.583696-3.801084 6.583696 3.801084v7.602159l-6.583696 3.801084z" style="fill:none;stroke-width:.974299;stroke-linecap:round;stroke-linejoin:bevel;filter:url(#i);stroke:url(#b)" transform="matrix(1.0657329 0 0 1.0657329 -2.149966 -3.397933)"/>
      <ellipse cx="32.707592" cy="51.693031" opacity=".5" rx="29.201" ry="29.200945"/>
    </g>
  </g>
</svg>
