<svg height="190.5" viewBox="0 0 71.966675 190.5" width="71.966675" xmlns="http://www.w3.org/2000/svg" xmlns:xlink="http://www.w3.org/1999/xlink">
  <clipPath id="a">
    <path d="m37.548498 0h20.097003v50.396823h-20.097003z"/>
  </clipPath>
  <linearGradient id="b">
    <stop offset="0" stop-color="#4a4a4a"/>
    <stop offset=".38524058" stop-color="#c3c3c3"/>
    <stop offset=".63556564" stop-color="#989898"/>
    <stop offset="1" stop-color="#393939"/>
  </linearGradient>
  <radialGradient id="c" cx="26.035" cy="31.595758" gradientTransform="matrix(2.0000001 .00000103 -.00000038 .73333236 -26.458323 4.13478)" gradientUnits="userSpaceOnUse" r="3.175">
    <stop offset="0" stop-color="#dfdfdf"/>
    <stop offset=".50000024" stop-color="#707070"/>
    <stop offset="1" stop-color="#2b2b2b" stop-opacity="0"/>
  </radialGradient>
  <linearGradient id="d" gradientUnits="userSpaceOnUse" x1="23.283333" x2="29.633331" y1="47.09583" y2="47.09583">
    <stop offset="0" stop-color="#343434"/>
    <stop offset=".38524058" stop-color="#8c8c8c"/>
    <stop offset=".63556564" stop-color="#7c7c7c"/>
    <stop offset="1" stop-color="#272727"/>
  </linearGradient>
  <linearGradient id="e" gradientUnits="userSpaceOnUse" x1="23.283332" x2="29.633332" xlink:href="#b" y1="37.041665" y2="37.041665"/>
  <linearGradient id="f" gradientUnits="userSpaceOnUse" x1="23.177332" x2="29.739332" y1="47.09583" y2="47.09583">
    <stop offset="0" stop-color="#1b1b1b"/>
    <stop offset=".46774364" stop-color="#7c7c7c"/>
    <stop offset=".72579503" stop-color="#b7b7b7"/>
    <stop offset="1" stop-color="#1c1c1c"/>
  </linearGradient>
  <linearGradient id="g" gradientUnits="userSpaceOnUse" x1="26.458332" x2="26.458332" y1="44.555833" y2="49.635831">
    <stop offset="0" stop-color="#040404"/>
    <stop offset="1" stop-color="#1e1e1e" stop-opacity=".028103"/>
  </linearGradient>
  <filter id="h" color-interpolation-filters="sRGB" height="4.110627" width="2.579611" x="-.789805" y="-1.555313">
    <feGaussianBlur stdDeviation="2.0902082"/>
  </filter>
  <linearGradient id="i" gradientUnits="userSpaceOnUse" x1="129.016119" x2="129.016119" xlink:href="#b" y1="29.003639" y2="69.008634"/>
  <g clip-path="url(#a)" transform="matrix(3.78 0 0 3.78 -143.93332 -.000002)">
    <path d="m28.571688 30.691666h37.557026v3.225395h-37.557026z" filter="url(#h)" stroke-linecap="round" stroke-linejoin="round" stroke-width=".1" transform="translate(0 -13.758331)"/>
    <path d="m47.095769 13.758335s2.386164.269498 3.174999 1.058333 1.058334 3.175 1.058334 3.175v12.7s.08814 3.338191-1.058333 4.233333c-.834184.651311-2.116667 1.058333-3.175 1.058333s-2.116667-1.058333-2.116667-1.058333z" filter="url(#h)"/>
    <path d="m143.01813 29.003633h75.882v39.73h-75.882z" fill="url(#i)" transform="matrix(.26455026 0 0 .26455026 -.264583 -.264585)"/>
    <g transform="translate(21.166664 -13.758331)">
      <path d="m23.283332 29.633332c.846667-3.386666 5.503334-3.386666 6.35 0v16.933332h-6.35z" fill="url(#e)" stroke="url(#c)" stroke-linecap="round" stroke-linejoin="round" stroke-width=".212"/>
      <ellipse cx="26.458332" cy="47.095833" fill="url(#f)" rx="3.175" ry="2.54" stroke="url(#d)" stroke-linecap="round" stroke-linejoin="round" stroke-width=".212"/>
      <path d="m24.341665 30.691666h4.233333v4.233333h-4.233333z" fill="none"/>
      <path d="m26.458332 49.635832c-1.753504 0-3.175-1.137197-3.175-2.54s1.421496-2.54 3.175-2.54 3.175 1.137197 3.175 2.54-1.421496 2.54-3.175 2.54" fill="url(#g)"/>
    </g>
  </g>
</svg>
