<svg height="40" viewBox="0 0 24 40" width="24" xmlns="http://www.w3.org/2000/svg" xmlns:xlink="http://www.w3.org/1999/xlink">
  <linearGradient id="a">
    <stop offset="0" stop-color="#edcc84"/>
    <stop offset="1" stop-color="#edcc84" stop-opacity="0"/>
  </linearGradient>
  <linearGradient id="b" gradientUnits="userSpaceOnUse" x1="25.399956" x2="27.516666" xlink:href="#c" y1="36.14209" y2="36.14209"/>
  <linearGradient id="c">
    <stop offset="0" stop-color="#8e6815"/>
    <stop offset=".34552482" stop-color="#e5b64e"/>
    <stop offset=".66908443" stop-color="#d29a1f"/>
    <stop offset="1" stop-color="#956d16"/>
  </linearGradient>
  <radialGradient id="d" cx="26.271156" cy="34.021805" gradientTransform="matrix(1.3012623 -.03139085 .02426793 1.0059919 -8.740189 2.706918)" gradientUnits="userSpaceOnUse" r="1.0833">
    <stop offset="0" stop-color="#edcd85"/>
    <stop offset="1" stop-color="#b88517"/>
  </radialGradient>
  <radialGradient id="e" cx="26.458332" cy="32.808331" gradientTransform="matrix(1 0 0 .75000002 0 9.260417)" gradientUnits="userSpaceOnUse" r=".846667">
    <stop offset="0" stop-color="#edcc84"/>
    <stop offset=".34552482" stop-color="#e5b64e"/>
    <stop offset=".66908443" stop-color="#d29a1f"/>
    <stop offset="1" stop-color="#956d16"/>
  </radialGradient>
  <linearGradient id="f" gradientUnits="userSpaceOnUse" x1="26.458332" x2="26.458332" xlink:href="#a" y1="34.290001" y2="33.866665"/>
  <linearGradient id="g" gradientUnits="userSpaceOnUse" x1="26.458332" x2="26.458332" xlink:href="#a" y1="38.418736" y2="38.099998"/>
  <linearGradient id="h" gradientUnits="userSpaceOnUse" x1="26.458332" x2="26.458332" y1="36.618332" y2="35.348331">
    <stop offset="0" stop-color="#edcc85"/>
    <stop offset="1" stop-color="#c8921d" stop-opacity=".014052"/>
  </linearGradient>
  <linearGradient id="i" gradientUnits="userSpaceOnUse" x1="26.458332" x2="26.458332" xlink:href="#a" y1="36.195" y2="35.983334"/>
  <linearGradient id="j" gradientUnits="userSpaceOnUse" x1="25.985001" x2="26.931665" xlink:href="#c" y1="35.004372" y2="35.004372"/>
  <filter id="k" color-interpolation-filters="sRGB" height="1.708746" width="1.362881" x="-.181441" y="-.354373">
    <feGaussianBlur stdDeviation=".096012333"/>
  </filter>
  <filter id="l" color-interpolation-filters="sRGB" height="1.66" width="1.377143" x="-.188571" y="-.33">
    <feGaussianBlur stdDeviation=".23283332"/>
  </filter>
  <g transform="matrix(5.8817435 0 0 5.8817435 -143.62112 -192.81605)">
    <ellipse cx="26.458332" cy="38.099998" fill="#070501" filter="url(#l)" opacity=".5" rx="1.481667" ry=".846667"/>
    <path d="m25.399955 35.983332h2.116711v2.116667c0 .423333-2.116667.423333-2.116711 0z" fill="url(#b)" stroke="url(#g)" stroke-linecap="round" stroke-linejoin="round" stroke-width=".1"/>
    <ellipse cx="26.45796" cy="35.983349" fill="url(#d)" rx="1.057961" ry=".635017" stroke="url(#h)" stroke-linecap="round" stroke-linejoin="round" stroke-width=".1"/>
    <ellipse cx="26.458332" cy="35.98333" fill="#070501" filter="url(#k)" opacity=".5" rx=".635" ry=".325123"/>
    <path d="m26.035 33.866665h.846666l-.000001 2.116667c-.211666.211667-.634999.211667-.846666 0z" fill="url(#j)" stroke="url(#i)" stroke-linecap="round" stroke-linejoin="round" stroke-width=".1"/>
    <ellipse cx="26.458332" cy="33.866665" fill="url(#e)" rx=".846667" ry=".635"/>
    <path d="m27.093332 33.866665c0 .2338-.284299.423333-.635.423333s-.635-.189533-.635-.423333" fill="none" stroke="url(#f)" stroke-linecap="round" stroke-linejoin="round" stroke-width=".1"/>
  </g>
</svg>
